# xmcd
#
# Track frame offsets: 
#        150
#        19074
#        32585
#        49778
#        67239
#        81941
#        97844
#        113913
#        130512
#        148284
#        159500
#        177595
#        194969
#        209372
#        226398
#        241074
#        256198
#        270854
#        286881
#        304963
#        320071
#        339417
#
# Disc length: 4736 seconds
#
# Revision: 0
# Processed by: cddbd v1.5.2PL0 Copyright (c) Steve Scherf et al.
# Submitted via: ExactAudioCopy v1.0b3
#
DISCID=42127e16
DTITLE=渡哲也 - ゴールデン☆ベスト 渡哲也 日活ニューアクション時代 CRCN-20311
DYEAR=2004
DGENRE=JPop
TTITLE0=純愛のブルース
TTITLE1=真赤なドラム
TTITLE2=俺とお前の明日がある
TTITLE3=男の波止場 
TTITLE4=東京流れ者
TTITLE5=ラテン街の夜 
TTITLE6=海は真赤な恋の色 
TTITLE7=あの娘のために死ぬんだぜ 
TTITLE8=星よ嘆くな 
TTITLE9=嵐を呼ぶ男 
TTITLE10=陽のあたる坂道 
TTITLE11=夏の日の恋 
TTITLE12=俺の明日はどこにある 
TTITLE13=浜辺で逢えるさ 
TTITLE14=海を見ていたジョニー 
TTITLE15=燃える大陸 
TTITLE16=赤と黒のブルース 
TTITLE17=花と竜 
TTITLE18=ギターと旅びと 
TTITLE19=荒野の赤い花
TTITLE20=赤い夕陽に 
TTITLE21=関東流れ唄 
EXTD=
EXTT0=
EXTT1=
EXTT2=
EXTT3=
EXTT4=
EXTT5=
EXTT6=
EXTT7=
EXTT8=
EXTT9=
EXTT10=
EXTT11=
EXTT12=
EXTT13=
EXTT14=
EXTT15=
EXTT16=
EXTT17=
EXTT18=
EXTT19=
EXTT20=
EXTT21=
PLAYORDER=
